ffmpeg started on 2025-05-12 at 18:45:30
Report written to "D:\Convert\FFMetrics\reports\psnr_report-6.txt"
Log level: 32
Command line:
ffmpeg -hide_banner -nostdin -i "G:\\\xc0\xed\xe8\xec\xe5\\\xce\xed\xe3\xee\xe8\xed\xe3\xe8\\!_35_\xcb\xe5\xf2\xee_2024\\DreamCast\\\xcf\xee\xea\xe0-\xef\xee\xea\xe0, \xc7\xe5\xec\xeb\xff\\[DC] Bye Bye Earth - 06_Telegram_HEVC.mkv" -i "G:\\\xc0\xed\xe8\xec\xe5\\\xce\xed\xe3\xee\xe8\xed\xe3\xe8\\!_35_\xcb\xe5\xf2\xee_2024\\DreamCast\\\xcf\xee\xea\xe0-\xef\xee\xea\xe0, \xc7\xe5\xec\xeb\xff\\[DC] Bye Bye Earth - 06_Telegram.mp4" -lavfi "[0:v]settb=AVTB,setpts=PTS-STARTPTS,format=pix_fmts=yuv420p10,fps=24000/1001,scale=1920:1080:flags=bicubic[main];[1:v]settb=AVTB,setpts=PTS-STARTPTS,format=pix_fmts=yuv420p,fps=24000/1001,scale=1920:1080:flags=bicubic[ref];[main][ref]psnr=eof_action=endall:stats_file='D\\:/Convert/FFMetrics/logs/psnr_logfile-6.txt'" -f null -
Input #0, matroska,webm, from 'G:\Аниме\Онгоинги\!_35_Лето_2024\DreamCast\Пока-пока, Земля\[DC] Bye Bye Earth - 06_Telegram_HEVC.mkv':
  Metadata:
    COMPATIBLE_BRANDS: isomiso2avc1mp41
    MAJOR_BRAND     : isom
    MINOR_VERSION   : 512
    ENCODER         : Lavf61.7.100
  Duration: 00:23:46.65, start: -0.021000, bitrate: 2275 kb/s
  Stream #0:0: Video: hevc (Main 10), yuv420p10le(tv, bt709, progressive), 1920x1080 [SAR 1:1 DAR 16:9], 23.98 fps, 23.98 tbr, 1k tbn (default)
      Metadata:
        HANDLER_NAME    : VideoHandler
        VENDOR_ID       : [0][0][0][0]
        ENCODER         : Lavc61.19.100 libx265
        BPS             : 2077377
        DURATION        : 00:23:46.549708333
        NUMBER_OF_FRAMES: 34203
        NUMBER_OF_BYTES : 370435136
        _STATISTICS_WRITING_APP: mkvpropedit v66.0.0 ('Josie') 64-bit
        _STATISTICS_WRITING_DATE_UTC: 2025-05-09 16:20:44
        _STATISTICS_TAGS: BPS DURATION NUMBER_OF_FRAMES NUMBER_OF_BYTES
  Stream #0:1: Audio: aac (LC), 48000 Hz, stereo, fltp (default)
      Metadata:
        HANDLER_NAME    : SoundHandler
        VENDOR_ID       : [0][0][0][0]
        ENCODER         : Lavc61.19.100 aac
        BPS             : 194155
        DURATION        : 00:23:46.645000000
        NUMBER_OF_FRAMES: 66875
        NUMBER_OF_BYTES : 34623849
        _STATISTICS_WRITING_APP: mkvpropedit v66.0.0 ('Josie') 64-bit
        _STATISTICS_WRITING_DATE_UTC: 2025-05-09 16:20:44
        _STATISTICS_TAGS: BPS DURATION NUMBER_OF_FRAMES NUMBER_OF_BYTES
Input #1, mov,mp4,m4a,3gp,3g2,mj2, from 'G:\Аниме\Онгоинги\!_35_Лето_2024\DreamCast\Пока-пока, Земля\[DC] Bye Bye Earth - 06_Telegram.mp4':
  Metadata:
    major_brand     : isom
    minor_version   : 512
    compatible_brands: isomiso2avc1mp41
    encoder         : Lavf60.16.100
  Duration: 00:23:46.62, start: 0.000000, bitrate: 4054 kb/s
  Stream #1:0[0x1](und): Video: h264 (High) (avc1 / 0x31637661), yuv420p(tv, bt709, progressive), 1920x1080 [SAR 1:1 DAR 16:9], 3906 kb/s, 23.98 fps, 23.98 tbr, 24k tbn (default)
      Metadata:
        handler_name    : VideoHandler
        vendor_id       : [0][0][0][0]
        encoder         : Lavc60.31.102 h264_qsv
  Stream #1:1[0x2](und): Audio: aac (HE-AACv2) (mp4a / 0x6134706D), 48000 Hz, stereo, fltp, 144 kb/s (default)
      Metadata:
        handler_name    : SoundHandler
        vendor_id       : [0][0][0][0]
Stream mapping:
  Stream #0:0 (hevc) -> settb:default
  Stream #1:0 (h264) -> settb:default
  psnr:default -> Stream #0:0 (wrapped_avframe)
  Stream #0:1 -> #0:1 (aac (native) -> pcm_s16le (native))
Output #0, null, to 'pipe:':
  Metadata:
    COMPATIBLE_BRANDS: isomiso2avc1mp41
    MAJOR_BRAND     : isom
    MINOR_VERSION   : 512
    encoder         : Lavf61.7.100
  Stream #0:0: Video: wrapped_avframe, yuv420p10le(tv, bt709, progressive), 1920x1080 [SAR 1:1 DAR 16:9], q=2-31, 200 kb/s, 23.98 fps, 23.98 tbn
      Metadata:
        encoder         : Lavc61.19.100 wrapped_avframe
  Stream #0:1: Audio: pcm_s16le, 48000 Hz, stereo, s16, 1536 kb/s (default)
      Metadata:
        HANDLER_NAME    : SoundHandler
        VENDOR_ID       : [0][0][0][0]
        _STATISTICS_TAGS: BPS DURATION NUMBER_OF_FRAMES NUMBER_OF_BYTES
        BPS             : 194155
        DURATION        : 00:23:46.645000000
        NUMBER_OF_FRAMES: 66875
        NUMBER_OF_BYTES : 34623849
        _STATISTICS_WRITING_APP: mkvpropedit v66.0.0 ('Josie') 64-bit
        _STATISTICS_WRITING_DATE_UTC: 2025-05-09 16:20:44
        encoder         : Lavc61.19.100 pcm_s16le
frame=  170 fps=0.0 q=-0.0 size=N/A time=00:00:07.09 bitrate=N/A speed=13.5x    frame=  344 fps=334 q=-0.0 size=N/A time=00:00:14.34 bitrate=N/A speed=13.9x    frame=  547 fps=352 q=-0.0 size=N/A time=00:00:22.81 bitrate=N/A speed=14.7x    frame=  748 fps=363 q=-0.0 size=N/A time=00:00:31.19 bitrate=N/A speed=15.2x    frame=  961 fps=372 q=-0.0 size=N/A time=00:00:40.08 bitrate=N/A speed=15.5x    frame= 1144 fps=370 q=-0.0 size=N/A time=00:00:47.71 bitrate=N/A speed=15.4x    frame= 1321 fps=366 q=-0.0 size=N/A time=00:00:55.09 bitrate=N/A speed=15.3x    frame= 1548 fps=374 q=-0.0 size=N/A time=00:01:04.56 bitrate=N/A speed=15.6x    frame= 1736 fps=374 q=-0.0 size=N/A time=00:01:12.40 bitrate=N/A speed=15.6x    frame= 1952 fps=378 q=-0.0 size=N/A time=00:01:21.41 bitrate=N/A speed=15.8x    frame= 2123 fps=374 q=-0.0 size=N/A time=00:01:28.54 bitrate=N/A speed=15.6x    frame= 2300 fps=372 q=-0.0 size=N/A time=00:01:35.92 bitrate=N/A speed=15.5x    frame= 2519 fps=375 q=-0.0 size=N/A time=00:01:45.06 bitrate=N/A speed=15.7x    frame= 2726 fps=377 q=-0.0 size=N/A time=00:01:53.69 bitrate=N/A speed=15.7x    frame= 2925 fps=378 q=-0.0 size=N/A time=00:02:01.99 bitrate=N/A speed=15.8x    frame= 3161 fps=383 q=-0.0 size=N/A time=00:02:11.84 bitrate=N/A speed=  16x    frame= 3418 fps=390 q=-0.0 size=N/A time=00:02:22.55 bitrate=N/A speed=16.3x    frame= 3679 fps=396 q=-0.0 size=N/A time=00:02:33.44 bitrate=N/A speed=16.5x    frame= 3927 fps=401 q=-0.0 size=N/A time=00:02:43.78 bitrate=N/A speed=16.7x    frame= 4126 fps=400 q=-0.0 size=N/A time=00:02:52.08 bitrate=N/A speed=16.7x    frame= 4300 fps=397 q=-0.0 size=N/A time=00:02:59.34 bitrate=N/A speed=16.6x    frame= 4464 fps=393 q=-0.0 size=N/A time=00:03:06.18 bitrate=N/A speed=16.4x    frame= 4644 fps=392 q=-0.0 size=N/A time=00:03:13.69 bitrate=N/A speed=16.3x    frame= 4834 fps=390 q=-0.0 size=N/A time=00:03:21.61 bitrate=N/A speed=16.3x    frame= 5050 fps=392 q=-0.0 size=N/A time=00:03:30.62 bitrate=N/A speed=16.3x    frame= 5252 fps=392 q=-0.0 size=N/A time=00:03:39.05 bitrate=N/A speed=16.3x    frame= 5426 fps=390 q=-0.0 size=N/A time=00:03:46.30 bitrate=N/A speed=16.3x    frame= 5644 fps=391 q=-0.0 size=N/A time=00:03:55.40 bitrate=N/A speed=16.3x    frame= 5835 fps=390 q=-0.0 size=N/A time=00:04:03.36 bitrate=N/A speed=16.3x    frame= 6053 fps=391 q=-0.0 size=N/A time=00:04:12.46 bitrate=N/A speed=16.3x    frame= 6232 fps=390 q=-0.0 size=N/A time=00:04:19.92 bitrate=N/A speed=16.2x    frame= 6440 fps=390 q=-0.0 size=N/A time=00:04:28.60 bitrate=N/A speed=16.3x    frame= 6618 fps=389 q=-0.0 size=N/A time=00:04:36.02 bitrate=N/A speed=16.2x    frame= 6824 fps=389 q=-0.0 size=N/A time=00:04:44.61 bitrate=N/A speed=16.2x    frame= 7037 fps=390 q=-0.0 size=N/A time=00:04:53.50 bitrate=N/A speed=16.3x    frame= 7322 fps=394 q=-0.0 size=N/A time=00:05:05.38 bitrate=N/A speed=16.4x    frame= 7512 fps=394 q=-0.0 size=N/A time=00:05:13.31 bitrate=N/A speed=16.4x    frame= 7718 fps=394 q=-0.0 size=N/A time=00:05:21.90 bitrate=N/A speed=16.4x    frame= 7953 fps=395 q=-0.0 size=N/A time=00:05:31.70 bitrate=N/A speed=16.5x    frame= 8162 fps=395 q=-0.0 size=N/A time=00:05:40.42 bitrate=N/A speed=16.5x    frame= 8375 fps=396 q=-0.0 size=N/A time=00:05:49.30 bitrate=N/A speed=16.5x    frame= 8568 fps=395 q=-0.0 size=N/A time=00:05:57.35 bitrate=N/A speed=16.5x    frame= 8773 fps=395 q=-0.0 size=N/A time=00:06:05.90 bitrate=N/A speed=16.5x    frame= 8961 fps=395 q=-0.0 size=N/A time=00:06:13.74 bitrate=N/A speed=16.5x    frame= 9171 fps=395 q=-0.0 size=N/A time=00:06:22.50 bitrate=N/A speed=16.5x    frame= 9402 fps=396 q=-0.0 size=N/A time=00:06:32.14 bitrate=N/A speed=16.5x    frame= 9604 fps=396 q=-0.0 size=N/A time=00:06:40.56 bitrate=N/A speed=16.5x    frame= 9847 fps=398 q=-0.0 size=N/A time=00:06:50.70 bitrate=N/A speed=16.6x    frame=10118 fps=400 q=-0.0 size=N/A time=00:07:02.00 bitrate=N/A speed=16.7x    frame=10359 fps=401 q=-0.0 size=N/A time=00:07:12.05 bitrate=N/A speed=16.7x    frame=10605 fps=403 q=-0.0 size=N/A time=00:07:22.31 bitrate=N/A speed=16.8x    frame=10788 fps=402 q=-0.0 size=N/A time=00:07:29.94 bitrate=N/A speed=16.8x    frame=10975 fps=401 q=-0.0 size=N/A time=00:07:37.74 bitrate=N/A speed=16.7x    frame=11144 fps=400 q=-0.0 size=N/A time=00:07:44.79 bitrate=N/A speed=16.7x    frame=11334 fps=399 q=-0.0 size=N/A time=00:07:52.72 bitrate=N/A speed=16.7x    frame=11534 fps=399 q=-0.0 size=N/A time=00:08:01.06 bitrate=N/A speed=16.6x    frame=11754 fps=400 q=-0.0 size=N/A time=00:08:10.23 bitrate=N/A speed=16.7x    frame=11962 fps=400 q=-0.0 size=N/A time=00:08:18.91 bitrate=N/A speed=16.7x    frame=12194 fps=401 q=-0.0 size=N/A time=00:08:28.59 bitrate=N/A speed=16.7x    frame=12443 fps=402 q=-0.0 size=N/A time=00:08:38.97 bitrate=N/A speed=16.8x    frame=12709 fps=404 q=-0.0 size=N/A time=00:08:50.07 bitrate=N/A speed=16.8x    frame=12972 fps=405 q=-0.0 size=N/A time=00:09:01.04 bitrate=N/A speed=16.9x    frame=13212 fps=406 q=-0.0 size=N/A time=00:09:11.05 bitrate=N/A speed=16.9x    frame=13450 fps=407 q=-0.0 size=N/A time=00:09:20.97 bitrate=N/A speed=  17x    frame=13675 fps=408 q=-0.0 size=N/A time=00:09:30.36 bitrate=N/A speed=  17x    frame=13909 fps=408 q=-0.0 size=N/A time=00:09:40.12 bitrate=N/A speed=  17x    frame=14158 fps=409 q=-0.0 size=N/A time=00:09:50.50 bitrate=N/A speed=17.1x    frame=14425 fps=411 q=-0.0 size=N/A time=00:10:01.64 bitrate=N/A speed=17.1x    frame=14693 fps=413 q=-0.0 size=N/A time=00:10:12.82 bitrate=N/A speed=17.2x    frame=14910 fps=413 q=-0.0 size=N/A time=00:10:21.87 bitrate=N/A speed=17.2x    frame=15164 fps=414 q=-0.0 size=N/A time=00:10:32.46 bitrate=N/A speed=17.3x    frame=15427 fps=415 q=-0.0 size=N/A time=00:10:43.43 bitrate=N/A speed=17.3x    frame=15638 fps=415 q=-0.0 size=N/A time=00:10:52.23 bitrate=N/A speed=17.3x    frame=15832 fps=414 q=-0.0 size=N/A time=00:11:00.32 bitrate=N/A speed=17.3x    frame=16021 fps=414 q=-0.0 size=N/A time=00:11:08.20 bitrate=N/A speed=17.3x    frame=16247 fps=414 q=-0.0 size=N/A time=00:11:17.63 bitrate=N/A speed=17.3x    frame=16494 fps=415 q=-0.0 size=N/A time=00:11:27.93 bitrate=N/A speed=17.3x    frame=16755 fps=416 q=-0.0 size=N/A time=00:11:38.82 bitrate=N/A speed=17.4x    frame=17036 fps=418 q=-0.0 size=N/A time=00:11:50.54 bitrate=N/A speed=17.4x    frame=17276 fps=418 q=-0.0 size=N/A time=00:12:00.55 bitrate=N/A speed=17.5x    frame=17477 fps=418 q=-0.0 size=N/A time=00:12:08.93 bitrate=N/A speed=17.4x    frame=17706 fps=418 q=-0.0 size=N/A time=00:12:18.48 bitrate=N/A speed=17.5x    frame=17878 fps=417 q=-0.0 size=N/A time=00:12:25.66 bitrate=N/A speed=17.4x    frame=18071 fps=417 q=-0.0 size=N/A time=00:12:33.71 bitrate=N/A speed=17.4x    frame=18318 fps=418 q=-0.0 size=N/A time=00:12:44.01 bitrate=N/A speed=17.4x    frame=18514 fps=417 q=-0.0 size=N/A time=00:12:52.18 bitrate=N/A speed=17.4x    frame=18702 fps=417 q=-0.0 size=N/A time=00:13:00.02 bitrate=N/A speed=17.4x    frame=18885 fps=416 q=-0.0 size=N/A time=00:13:07.66 bitrate=N/A speed=17.3x    frame=19090 fps=416 q=-0.0 size=N/A time=00:13:16.21 bitrate=N/A speed=17.3x    frame=19279 fps=415 q=-0.0 size=N/A time=00:13:24.09 bitrate=N/A speed=17.3x    frame=19510 fps=415 q=-0.0 size=N/A time=00:13:33.72 bitrate=N/A speed=17.3x    frame=19735 fps=416 q=-0.0 size=N/A time=00:13:43.11 bitrate=N/A speed=17.3x    frame=19975 fps=416 q=-0.0 size=N/A time=00:13:53.12 bitrate=N/A speed=17.4x    frame=20245 fps=417 q=-0.0 size=N/A time=00:14:04.38 bitrate=N/A speed=17.4x    frame=20480 fps=418 q=-0.0 size=N/A time=00:14:14.18 bitrate=N/A speed=17.4x    frame=20667 fps=417 q=-0.0 size=N/A time=00:14:21.98 bitrate=N/A speed=17.4x    frame=20872 fps=417 q=-0.0 size=N/A time=00:14:30.53 bitrate=N/A speed=17.4x    frame=21070 fps=417 q=-0.0 size=N/A time=00:14:38.79 bitrate=N/A speed=17.4x    frame=21267 fps=416 q=-0.0 size=N/A time=00:14:47.01 bitrate=N/A speed=17.4x    frame=21477 fps=416 q=-0.0 size=N/A time=00:14:55.76 bitrate=N/A speed=17.4x    frame=21665 fps=416 q=-0.0 size=N/A time=00:15:03.61 bitrate=N/A speed=17.3x    frame=21890 fps=416 q=-0.0 size=N/A time=00:15:12.99 bitrate=N/A speed=17.3x    frame=22070 fps=415 q=-0.0 size=N/A time=00:15:20.50 bitrate=N/A speed=17.3x    frame=22292 fps=415 q=-0.0 size=N/A time=00:15:29.76 bitrate=N/A speed=17.3x    frame=22530 fps=416 q=-0.0 size=N/A time=00:15:39.68 bitrate=N/A speed=17.3x    frame=22723 fps=415 q=-0.0 size=N/A time=00:15:47.73 bitrate=N/A speed=17.3x    frame=22964 fps=416 q=-0.0 size=N/A time=00:15:57.79 bitrate=N/A speed=17.3x    frame=23207 fps=416 q=-0.0 size=N/A time=00:16:07.92 bitrate=N/A speed=17.4x    frame=23450 fps=417 q=-0.0 size=N/A time=00:16:18.06 bitrate=N/A speed=17.4x    frame=23660 fps=417 q=-0.0 size=N/A time=00:16:26.81 bitrate=N/A speed=17.4x    frame=23866 fps=417 q=-0.0 size=N/A time=00:16:35.41 bitrate=N/A speed=17.4x    frame=24098 fps=417 q=-0.0 size=N/A time=00:16:45.08 bitrate=N/A speed=17.4x    frame=24319 fps=417 q=-0.0 size=N/A time=00:16:54.30 bitrate=N/A speed=17.4x    frame=24520 fps=417 q=-0.0 size=N/A time=00:17:02.68 bitrate=N/A speed=17.4x    frame=24719 fps=417 q=-0.0 size=N/A time=00:17:10.98 bitrate=N/A speed=17.4x    frame=24929 fps=416 q=-0.0 size=N/A time=00:17:19.74 bitrate=N/A speed=17.4x    frame=25117 fps=416 q=-0.0 size=N/A time=00:17:27.58 bitrate=N/A speed=17.4x    frame=25325 fps=416 q=-0.0 size=N/A time=00:17:36.26 bitrate=N/A speed=17.3x    frame=25547 fps=416 q=-0.0 size=N/A time=00:17:45.52 bitrate=N/A speed=17.4x    frame=25770 fps=416 q=-0.0 size=N/A time=00:17:54.82 bitrate=N/A speed=17.4x    frame=25986 fps=416 q=-0.0 size=N/A time=00:18:03.83 bitrate=N/A speed=17.4x    frame=26210 fps=416 q=-0.0 size=N/A time=00:18:13.17 bitrate=N/A speed=17.4x    frame=26438 fps=417 q=-0.0 size=N/A time=00:18:22.68 bitrate=N/A speed=17.4x    frame=26596 fps=416 q=-0.0 size=N/A time=00:18:29.27 bitrate=N/A speed=17.3x    frame=26731 fps=414 q=-0.0 size=N/A time=00:18:34.90 bitrate=N/A speed=17.3x    frame=26926 fps=414 q=-0.0 size=N/A time=00:18:43.03 bitrate=N/A speed=17.3x    frame=27123 fps=414 q=-0.0 size=N/A time=00:18:51.25 bitrate=N/A speed=17.3x    frame=27356 fps=414 q=-0.0 size=N/A time=00:19:00.97 bitrate=N/A speed=17.3x    frame=27592 fps=415 q=-0.0 size=N/A time=00:19:10.81 bitrate=N/A speed=17.3x    frame=27793 fps=414 q=-0.0 size=N/A time=00:19:19.19 bitrate=N/A speed=17.3x    frame=28014 fps=414 q=-0.0 size=N/A time=00:19:28.41 bitrate=N/A speed=17.3x    frame=28227 fps=414 q=-0.0 size=N/A time=00:19:37.30 bitrate=N/A speed=17.3x    frame=28438 fps=414 q=-0.0 size=N/A time=00:19:46.10 bitrate=N/A speed=17.3x    frame=28622 fps=414 q=-0.0 size=N/A time=00:19:53.77 bitrate=N/A speed=17.3x    frame=28827 fps=414 q=-0.0 size=N/A time=00:20:02.32 bitrate=N/A speed=17.3x    frame=29034 fps=414 q=-0.0 size=N/A time=00:20:10.95 bitrate=N/A speed=17.3x    frame=29192 fps=413 q=-0.0 size=N/A time=00:20:17.54 bitrate=N/A speed=17.2x    frame=29347 fps=412 q=-0.0 size=N/A time=00:20:24.01 bitrate=N/A speed=17.2x    frame=29548 fps=412 q=-0.0 size=N/A time=00:20:32.39 bitrate=N/A speed=17.2x    frame=29717 fps=411 q=-0.0 size=N/A time=00:20:39.44 bitrate=N/A speed=17.2x    frame=29924 fps=411 q=-0.0 size=N/A time=00:20:48.08 bitrate=N/A speed=17.2x    frame=30142 fps=411 q=-0.0 size=N/A time=00:20:57.17 bitrate=N/A speed=17.2x    frame=30328 fps=411 q=-0.0 size=N/A time=00:21:04.93 bitrate=N/A speed=17.1x    frame=30527 fps=411 q=-0.0 size=N/A time=00:21:13.23 bitrate=N/A speed=17.1x    frame=30739 fps=411 q=-0.0 size=N/A time=00:21:22.07 bitrate=N/A speed=17.1x    frame=30920 fps=410 q=-0.0 size=N/A time=00:21:29.62 bitrate=N/A speed=17.1x    frame=31118 fps=410 q=-0.0 size=N/A time=00:21:37.87 bitrate=N/A speed=17.1x    frame=31330 fps=410 q=-0.0 size=N/A time=00:21:46.72 bitrate=N/A speed=17.1x    frame=31528 fps=410 q=-0.0 size=N/A time=00:21:54.98 bitrate=N/A speed=17.1x    frame=31763 fps=410 q=-0.0 size=N/A time=00:22:04.78 bitrate=N/A speed=17.1x    frame=31914 fps=410 q=-0.0 size=N/A time=00:22:11.07 bitrate=N/A speed=17.1x    frame=32042 fps=409 q=-0.0 size=N/A time=00:22:16.41 bitrate=N/A speed=  17x    frame=32174 fps=408 q=-0.0 size=N/A time=00:22:21.92 bitrate=N/A speed=  17x    frame=32330 fps=407 q=-0.0 size=N/A time=00:22:28.43 bitrate=N/A speed=  17x    frame=32507 fps=406 q=-0.0 size=N/A time=00:22:35.81 bitrate=N/A speed=  17x    frame=32677 fps=406 q=-0.0 size=N/A time=00:22:42.90 bitrate=N/A speed=16.9x    frame=32839 fps=405 q=-0.0 size=N/A time=00:22:49.65 bitrate=N/A speed=16.9x    frame=32984 fps=405 q=-0.0 size=N/A time=00:22:55.70 bitrate=N/A speed=16.9x    frame=33119 fps=404 q=-0.0 size=N/A time=00:23:01.33 bitrate=N/A speed=16.8x    frame=33262 fps=403 q=-0.0 size=N/A time=00:23:07.30 bitrate=N/A speed=16.8x    frame=33399 fps=402 q=-0.0 size=N/A time=00:23:13.01 bitrate=N/A speed=16.8x    frame=33554 fps=401 q=-0.0 size=N/A time=00:23:19.48 bitrate=N/A speed=16.7x    frame=33708 fps=401 q=-0.0 size=N/A time=00:23:25.90 bitrate=N/A speed=16.7x    frame=33884 fps=400 q=-0.0 size=N/A time=00:23:33.24 bitrate=N/A speed=16.7x    frame=34132 fps=401 q=-0.0 size=N/A time=00:23:43.58 bitrate=N/A speed=16.7x    [Parsed_psnr_10 @ 0000024ce76f2ac0] PSNR y:47.518781 u:49.278187 v:48.900939 average:47.980930 min:38.758263 max:inf
[out#0/null @ 0000024ce78a54c0] video:14697KiB audio:267500KiB subtitle:0KiB other streams:0KiB global headers:0KiB muxing overhead: unknown
frame=34203 fps=401 q=-0.0 Lsize=N/A time=00:23:46.55 bitrate=N/A speed=16.7x    
